<svg width="1" height="1" viewBox="0 0 40 40" fill="none" xmlns="http://www.w3.org/2000/svg">
<path d="M19.992 39.9841C31.0333 39.9841 39.9841 31.0333 39.9841 19.992C39.9841 8.95074 31.0333 0 19.992 0C8.95074 0 0 8.95074 0 19.992C0 31.0333 8.95074 39.9841 19.992 39.9841Z" fill="#00BAB9"/>
<path d="M13.1207 19.434C13.605 19.434 13.9976 19.0415 13.9976 18.5572C13.9976 18.0729 13.605 17.6803 13.1207 17.6803C12.6365 17.6803 12.2439 18.0729 12.2439 18.5572C12.2439 19.0415 12.6365 19.434 13.1207 19.434Z" fill="#111111"/>
<path d="M19.1311 19.434C19.6154 19.434 20.008 19.0415 20.008 18.5572C20.008 18.0729 19.6154 17.6803 19.1311 17.6803C18.6468 17.6803 18.2543 18.0729 18.2543 18.5572C18.2543 19.0415 18.6468 19.434 19.1311 19.434Z" fill="#111111"/>
<path d="M19.9602 21.1558C19.9602 22.6188 19.379 24.0219 18.3445 25.0563C17.3101 26.0908 15.907 26.6719 14.444 26.6719C13.7204 26.672 13.0039 26.5292 12.3355 26.2518C11.6672 25.9744 11.0601 25.5678 10.5492 25.0554C10.0382 24.5429 9.63337 23.9347 9.3579 23.2656C9.08242 22.5964 8.94171 21.8795 8.94381 21.1558H19.9602Z" fill="white"/>
<path d="M13.9976 21.1558C13.9976 21.6886 13.786 22.1995 13.4093 22.5762C13.0326 22.953 12.5216 23.1646 11.9889 23.1646C11.7258 23.1646 11.4654 23.1125 11.2225 23.0114C10.9797 22.9103 10.7593 22.762 10.574 22.5753C10.3888 22.3885 10.2423 22.1669 10.1431 21.9233C10.0439 21.6797 9.99393 21.4189 9.99604 21.1558H13.9976Z" fill="#111111"/>
</svg>
