<svg width="258" height="134" viewBox="0 0 258 134" fill="none" xmlns="http://www.w3.org/2000/svg">
<g filter="url(#filter0_d_10:1215)">
<g clip-path="url(#clip0_10:1215)">
<path d="M10.1479 103.73H248" stroke="white" stroke-miterlimit="10"/>
<path d="M33.9997 67.2212C31.1399 64.9226 27.0968 63.7548 21.9937 63.7548H10.4437V93.6254H18.9244V71.9046H22.3018C27.6885 71.9046 30.425 74.105 30.425 78.4319C30.425 83.0416 27.6392 85.3771 22.1662 85.3771H21.0199V93.7237C22.1292 93.7852 22.9181 93.8098 23.4112 93.8098C25.489 93.8844 27.5608 93.5433 29.5043 92.8065C31.4478 92.0697 33.2236 90.9521 34.7269 89.5197C36.1818 88.0757 37.3225 86.3478 38.0775 84.4443C38.8326 82.5407 39.1858 80.5024 39.1152 78.4565C39.2026 76.3154 38.7854 74.1836 37.897 72.2323C37.0086 70.2811 35.6737 68.5648 33.9997 67.2212Z" fill="white"/>
<path d="M97.8879 77.1535H89.6785V83.4596H91.5521C92.982 83.4596 93.2039 84.2217 93.2039 84.6888C93.2039 85.3772 92.7971 86.1762 90.8495 86.1762C89.8775 86.2227 88.9063 86.0712 87.995 85.731C87.0837 85.3907 86.2514 84.8688 85.5491 84.1971C84.8797 83.4793 84.3605 82.6356 84.0219 81.7154C83.6833 80.7951 83.532 79.8169 83.5769 78.8376C83.5412 77.845 83.711 76.8557 84.0758 75.9315C84.4406 75.0072 84.9925 74.1679 85.697 73.4658C86.4194 72.7734 87.2739 72.2327 88.2098 71.8758C89.1457 71.519 90.144 71.3533 91.1453 71.3884C92.3931 71.4237 93.6212 71.7079 94.757 72.2243V63.8532C93.2397 63.3372 91.6512 63.0593 90.0483 63.0296C88.035 62.9819 86.0334 63.3493 84.1691 64.1086C82.3047 64.868 80.6175 66.003 79.2133 67.4425C77.7894 68.9061 76.6731 70.6387 75.9302 72.5386C75.1872 74.4384 74.8324 76.4672 74.8867 78.5057C74.7927 82.6695 76.3165 86.7084 79.1393 89.7779C80.4279 91.2444 82.0194 92.4157 83.8044 93.2114C85.5895 94.007 87.5261 94.4083 89.4813 94.3876C92.3909 94.4671 95.2154 93.4032 97.3456 91.4251C98.3685 90.5109 99.182 89.3878 99.7308 88.1321C100.28 86.8764 100.551 85.5175 100.526 84.1479C100.476 81.5841 99.5444 79.115 97.8879 77.1535Z" fill="white"/>
<path d="M114.43 63.005C112.944 62.9365 111.46 63.1703 110.068 63.6923C108.675 64.2143 107.404 65.0135 106.332 66.0412C105.305 67.1208 104.508 68.3956 103.987 69.7896C103.465 71.1836 103.232 72.6681 103.299 74.1543V93.6255H111.768V74.4616C111.768 71.9047 113 71.3638 114.011 71.3638C115.022 71.3638 116.304 71.9047 116.304 74.4616V93.6255H124.784V74.4616C124.784 70.7738 123.885 67.8974 122.122 65.9306C121.127 64.9191 119.924 64.134 118.597 63.6291C117.269 63.1241 115.848 62.9113 114.43 63.005Z" fill="white"/>
<path d="M140.809 63.005C139.271 62.91 137.73 63.1293 136.28 63.6492C134.83 64.1692 133.502 64.979 132.377 66.0289C131.335 67.1788 130.533 68.5245 130.019 69.9872C129.505 71.45 129.288 73.0003 129.382 74.5475V93.6254H137.863V86.3728H140.476V78.9974H137.863V74.8917C137.863 72.0153 139.182 71.413 140.328 71.413C140.674 71.3782 141.023 71.4375 141.338 71.5847C141.652 71.7319 141.921 71.9614 142.115 72.2489C142.497 73.0749 142.658 73.9852 142.584 74.8917V93.6746H151.064V74.2894C151.064 70.4542 150.226 67.59 148.599 65.7708C146.972 63.9515 144.285 63.005 140.809 63.005Z" fill="white"/>
<path d="M160.445 93.6254H168.925V71.8924H175.865V63.7548H153.48V71.8924H160.445V93.6254Z" fill="white"/>
<path d="M187.391 63.7548H178.922V93.6254H187.391V63.7548Z" fill="white"/>
<path d="M237.35 63.005C235.866 62.9305 234.382 63.1567 232.988 63.6701C231.594 64.1835 230.318 64.9734 229.239 65.9921C228.213 67.0716 227.415 68.3464 226.894 69.7404C226.373 71.1344 226.139 72.6189 226.207 74.1051V93.5763H234.687V74.4124C234.687 71.8555 235.92 71.3147 236.919 71.3147C237.917 71.3147 239.224 71.8555 239.224 74.4124V93.5763H247.692V74.4124C247.692 70.7246 246.792 67.8482 245.029 65.8814C244.031 64.8804 242.829 64.1054 241.504 63.6091C240.179 63.1127 238.762 62.9067 237.35 63.005Z" fill="white"/>
<path d="M118.35 11.3522H110.818V35.8756H118.35V26.0908H122.233V20.129H118.35V11.3522Z" fill="white"/>
<path d="M96.1375 27.0619L96.3841 27.4799C98.3193 30.6513 103.459 32.0527 107.564 32.0527V25.7343C100.933 25.5745 99.9341 20.1413 99.9341 16.8838V11.3522H92.4026V16.9329C92.4026 22.612 89.814 25.5377 84.7232 25.6606V32.0527C88.7047 32.0527 93.7955 30.5898 95.817 27.4676L96.1375 27.0619Z" fill="white"/>
<path d="M150.966 11.3522H144.679V31.3151H150.966V24.2346H152.778V31.3151H159.299V11.3522H152.778V18.2728H150.966V11.3522Z" fill="white"/>
<path d="M134.325 27.5905C136.495 30.049 140.192 30.5775 143.015 30.8971V24.4067C139.145 24.1609 137.703 22.8456 137.703 19.6373V18.6661H142.892V12.7043H137.85V10H130.331V12.7043H125.29V18.6661H130.405V19.6373C130.405 22.5506 128.643 24.1609 125.166 24.4067V30.8848C128.113 30.5283 131.391 30.0489 133.869 27.5782L134.103 27.3446L134.325 27.5905Z" fill="white"/>
<path d="M153.542 33.2818H126.313V39.2436H148.821C149.661 39.2436 150.467 39.5765 151.061 40.169C151.655 40.7614 151.989 41.5649 151.989 42.4028V47.4796H159.385V39.0224C159.383 38.2617 159.23 37.5089 158.935 36.8075C158.64 36.1061 158.208 35.4701 157.665 34.9362C157.121 34.4023 156.477 33.9812 155.77 33.6972C155.062 33.4133 154.305 33.2721 153.542 33.2818Z" fill="white"/>
<path d="M94.5105 37.9775V34.9536H87.1146V41.4071C87.1178 42.9286 87.7253 44.3869 88.8042 45.4627C89.883 46.5386 91.3453 47.1445 92.871 47.1477H118.325V41.1859H97.6784C97.2582 41.1859 96.8422 41.1026 96.4546 40.9408C96.067 40.7789 95.7155 40.5419 95.4207 40.2433C95.1259 39.9447 94.8936 39.5906 94.7373 39.2016C94.581 38.8126 94.5039 38.3965 94.5105 37.9775Z" fill="white"/>
<path d="M170.023 24.6157C172.079 24.6157 173.745 22.9537 173.745 20.9034C173.745 18.8532 172.079 17.1911 170.023 17.1911C167.967 17.1911 166.3 18.8532 166.3 20.9034C166.3 22.9537 167.967 24.6157 170.023 24.6157Z" fill="#00BAB9"/>
<path d="M170.023 40.436C172.079 40.436 173.745 38.774 173.745 36.7237C173.745 34.6735 172.079 33.0114 170.023 33.0114C167.967 33.0114 166.3 34.6735 166.3 36.7237C166.3 38.774 167.967 40.436 170.023 40.436Z" fill="#FFA638"/>
<path d="M218.305 67.6146C216.9 66.1394 215.205 64.9688 213.326 64.1757C211.447 63.3826 209.424 62.9841 207.384 63.005C205.279 62.963 203.186 63.344 201.232 64.1254C199.277 64.9068 197.5 66.0725 196.007 67.5531C194.509 68.9904 193.325 70.72 192.527 72.634C191.73 74.548 191.337 76.6054 191.372 78.6778C191.35 80.737 191.747 82.7792 192.54 84.6808C193.332 86.5825 194.503 88.3039 195.982 89.741C197.422 91.2171 199.148 92.3858 201.056 93.1761C202.963 93.9664 205.011 94.3619 207.076 94.3383C209.15 94.3734 211.209 93.986 213.127 93.1997C215.045 92.4134 216.782 91.2448 218.232 89.7656C219.716 88.3176 220.889 86.5834 221.679 84.6687C222.47 82.7541 222.861 80.699 222.829 78.6286C222.85 76.5847 222.46 74.5574 221.683 72.6659C220.906 70.7744 219.758 69.057 218.305 67.6146ZM207.113 87.0366C204.895 87.0334 202.77 86.1526 201.203 84.5876C199.636 83.0227 198.756 80.9016 198.756 78.6901C198.759 76.4807 199.64 74.3627 201.207 72.8004C202.774 71.2382 204.898 70.3591 207.113 70.3558C209.331 70.3558 211.458 71.2335 213.027 72.7961C214.596 74.3588 215.479 76.4786 215.483 78.6901C215.479 80.9027 214.597 83.0238 213.028 84.5884C211.459 86.153 209.332 87.0334 207.113 87.0366Z" fill="white"/>
<path d="M213.067 76.0718C213.393 76.9019 213.556 77.7865 213.547 78.6778C213.553 79.7252 213.317 80.7598 212.857 81.7018C213.36 80.7766 213.626 79.7423 213.634 78.6901C213.632 77.7873 213.438 76.8951 213.067 76.0718Z" fill="#0085CD"/>
<path d="M201.381 75.6785C200.879 76.6037 200.612 77.6379 200.605 78.6901C200.592 80.0029 200.979 81.2888 201.714 82.3778C201.016 81.2752 200.657 79.9936 200.679 78.6901C200.677 77.6456 200.917 76.6149 201.381 75.6785Z" fill="#0085CD"/>
<path d="M213.067 76.0719C212.558 74.9203 211.724 73.9412 210.667 73.2537C209.61 72.5662 208.375 72.2 207.113 72.1997C205.931 72.2044 204.772 72.5309 203.762 73.144C202.752 73.757 201.929 74.6333 201.381 75.6785C200.919 76.6112 200.679 77.6375 200.679 78.6778C200.657 79.9814 201.016 81.263 201.714 82.3656C202.311 83.246 203.116 83.9673 204.057 84.4665C204.998 84.9658 206.047 85.2278 207.113 85.2297C208.299 85.226 209.461 84.8988 210.474 84.2834C211.486 83.668 212.31 82.7879 212.857 81.7386C213.317 80.7967 213.553 79.7621 213.547 78.7147C213.561 77.811 213.397 76.9134 213.067 76.0719Z" fill="#00BAB9"/>
<path d="M57.0133 85.1928C60.6146 85.1928 63.534 82.2814 63.534 78.6901C63.534 75.0987 60.6146 72.1874 57.0133 72.1874C53.412 72.1874 50.4926 75.0987 50.4926 78.6901C50.4926 82.2814 53.412 85.1928 57.0133 85.1928Z" fill="#FF2400"/>
<path d="M68.2057 67.6146C66.8027 66.1365 65.1081 64.9638 63.2286 64.1705C61.3491 63.3772 59.3252 62.9804 57.2844 63.0049C55.1807 62.9618 53.0899 63.3424 51.1371 64.1239C49.1843 64.9054 47.4096 66.0717 45.9194 67.5531C44.4202 68.9897 43.2339 70.719 42.4343 72.6329C41.6348 74.5469 41.2392 76.6046 41.2723 78.6778C41.2501 80.737 41.6473 82.7792 42.4397 84.6808C43.2322 86.5825 44.4034 88.3039 45.8824 89.741C47.3226 91.2171 49.0487 92.3858 50.9558 93.1761C52.8629 93.9665 54.9112 94.3619 56.9763 94.3383C59.0516 94.3722 61.112 93.9843 63.0321 93.1981C64.9521 92.4119 66.6914 91.244 68.1441 89.7656C69.6243 88.3152 70.7939 86.5804 71.5821 84.666C72.3703 82.7517 72.7606 80.6978 72.7295 78.6286C72.7499 76.5847 72.3602 74.5574 71.5833 72.6659C70.8064 70.7744 69.658 69.057 68.2057 67.6146ZM57.0132 87.0366C54.7956 87.0334 52.6699 86.1526 51.103 84.5876C49.536 83.0227 48.6559 80.9016 48.6559 78.6901C48.6591 76.4807 49.5407 74.3627 51.1073 72.8004C52.6739 71.2382 54.7977 70.359 57.0132 70.3558C59.2309 70.3558 61.3579 71.2335 62.9272 72.7961C64.4964 74.3588 65.3797 76.4785 65.3829 78.6901C65.3797 80.9027 64.4968 83.0238 62.9279 84.5884C61.359 86.153 59.232 87.0334 57.0132 87.0366Z" fill="white"/>
<path d="M15.6086 118.936H10V117.104H10.5547L10.4438 115.162H10.1109V113.306H15.4606V115.076H15.9783V113.195H17.8397V119.046H15.9783V116.969H15.3744V115.162H15.1771L15.0539 117.129H15.6579L15.6086 118.936ZM20.1077 123.73C17.6424 123.73 16.2372 123.385 15.399 122.66C14.5115 123.385 13.2295 123.73 10.7396 123.73V121.812C13.0939 121.812 14.228 121.271 14.228 120.46V119.231H16.607V120.46C16.607 121.271 17.7657 121.8 20.1324 121.787L20.1077 123.73ZM13.0323 117.104L13.1433 115.137H12.4283L12.5393 117.104H13.0323ZM20.0954 119.722H18.1478V113.17H20.0954V119.722Z" fill="white"/>
<path d="M28.2062 118.85H21.5376V116.993H22.2402L22.1169 115.199H21.6485V113.33H28.1076V115.162H27.6269L27.5159 116.956H28.2555L28.2062 118.85ZM24.0029 123.766C23.7505 123.776 23.4988 123.736 23.2623 123.647C23.0258 123.559 22.8094 123.424 22.6257 123.252C22.442 123.079 22.2948 122.871 22.1926 122.641C22.0904 122.41 22.0354 122.162 22.0307 121.91V121.111C22.0314 120.861 22.0843 120.614 22.1859 120.385C22.2876 120.156 22.4358 119.95 22.6213 119.782C22.8067 119.613 23.0253 119.485 23.2631 119.404C23.5009 119.324 23.7529 119.294 24.0029 119.317H29.4882C29.7349 119.296 29.9833 119.327 30.2171 119.408C30.451 119.49 30.665 119.619 30.8452 119.789C31.0255 119.958 31.168 120.163 31.2633 120.391C31.3587 120.619 31.4049 120.864 31.3988 121.111V121.91C31.4042 122.16 31.358 122.408 31.2632 122.638C31.1685 122.869 31.0271 123.078 30.8479 123.252C30.6687 123.426 30.4555 123.562 30.2216 123.65C29.9877 123.739 29.7381 123.778 29.4882 123.766H24.0029ZM25.2355 116.981L25.3465 115.186H24.2987L24.4097 116.981H25.2355ZM28.6007 121.959C28.6626 121.97 28.7261 121.967 28.7867 121.951C28.8473 121.934 28.9035 121.905 28.9515 121.864C28.9995 121.824 29.0381 121.773 29.0646 121.717C29.0911 121.66 29.1048 121.598 29.1048 121.535C29.1048 121.473 29.0911 121.411 29.0646 121.354C29.0381 121.297 28.9995 121.247 28.9515 121.207C28.9035 121.166 28.8473 121.137 28.7867 121.12C28.7261 121.104 28.6626 121.101 28.6007 121.111H24.8165C24.702 121.111 24.5923 121.157 24.5114 121.237C24.4305 121.318 24.385 121.427 24.385 121.542C24.385 121.656 24.4305 121.765 24.5114 121.846C24.5923 121.926 24.702 121.972 24.8165 121.972L28.6007 121.959ZM31.2879 119.009H28.9335V113.207H31.2755L31.2879 119.009Z" fill="white"/>
<path d="M42.4187 117.19C42.4187 121.91 38.4372 122.832 36.1691 122.832V120.89C37.9811 120.89 40.0766 120.091 40.0766 117.129V115.383H36.1691V113.502H42.4187V117.19ZM45.7591 123.73H43.4171V113.17H45.7591V123.73Z" fill="white"/>
<path d="M57.0626 121.222H53.3646V123.68H51.0226V121.222H47.3246V119.329H57.1858L57.0626 121.222ZM56.7298 118.616H47.5835V113.281H49.8886V114.105H54.3507V113.281H56.6928L56.7298 118.616ZM54.3877 116.723V115.998H49.8886V116.723H54.3877Z" fill="white"/>
<path d="M66.7635 118.542C65.7898 118.558 64.8451 118.212 64.1133 117.571C63.3643 118.191 62.4239 118.534 61.4508 118.542V116.502C62.363 116.502 62.9546 116.108 62.9546 115.444V115.371H61.4878V113.478H62.9423V112.777H65.272V113.478H66.7265V115.371H65.235V115.444C65.235 116.108 65.6172 116.44 66.7635 116.502V118.542ZM71.5585 123.73H62.215V120.62H69.1425V120.337H62.215V118.849H71.4722V121.923H64.5571V122.242H71.5955L71.5585 123.73ZM71.4353 118.518H69.3891V116.76H69.0439V118.518H67.0593V113.17H69.0439V114.867H69.3891V113.17H71.4353V118.518Z" fill="white"/>
<path d="M79.9529 119.562L73.0377 119.722V115.567H76.9329V115.162H73.0377V113.281H79.2749V117.35H75.3797V117.829L79.9529 117.694V119.562ZM82.7387 123.619H73.4815V120.079H75.7742V121.75H82.6894L82.7387 123.619ZM82.6277 120.607H80.3103V113.17H82.6277V120.607Z" fill="white"/>
<path d="M90.9481 122.795C89.7155 122.795 88.2486 122.648 87.6323 121.714C86.9297 122.636 85.3396 122.758 84.3041 122.795V120.829C85.1547 120.829 86.4736 120.829 86.4736 118.727V115.162H84.4028V113.281H90.8249V115.162H88.791V118.727C88.791 120.878 89.8634 120.792 90.9358 120.829L90.9481 122.795ZM94.0051 123.73H91.6631V113.17H94.0051V123.73Z" fill="white"/>
<path d="M121.382 123.029H114.726V121.234C115.848 120.14 117.191 118.776 118.498 117.424C118.851 117.055 119.068 116.579 119.114 116.071C119.114 115.555 118.769 115.162 118.066 115.162C117.364 115.162 116.834 115.653 116.834 116.711H114.627C114.589 116.262 114.646 115.81 114.795 115.385C114.945 114.96 115.183 114.572 115.494 114.245C115.805 113.919 116.182 113.662 116.6 113.491C117.018 113.321 117.467 113.241 117.918 113.256C120.026 113.256 121.271 114.486 121.271 115.998C121.229 116.914 120.862 117.785 120.236 118.456C119.632 119.144 119.003 119.771 117.61 121.111H121.308L121.382 123.029Z" fill="white"/>
<path d="M125.758 123.164C122.837 123.164 122.27 120.251 122.27 118.247C122.27 116.244 122.837 113.33 125.758 113.33C128.68 113.33 129.271 116.244 129.271 118.247C129.271 120.251 128.704 123.164 125.758 123.164ZM125.758 115.162C124.464 115.162 124.464 117.178 124.464 118.21C124.464 119.243 124.464 121.247 125.758 121.247C127.052 121.247 127.065 119.243 127.065 118.21C127.065 117.178 127.077 115.162 125.77 115.162H125.758Z" fill="white"/>
<path d="M136.926 123.029H130.27V121.234C131.404 120.14 132.735 118.776 134.042 117.424C134.395 117.055 134.612 116.579 134.658 116.071C134.658 115.555 134.313 115.162 133.61 115.162C132.908 115.162 132.377 115.653 132.377 116.711H130.171C130.132 116.262 130.19 115.81 130.339 115.385C130.488 114.96 130.726 114.572 131.037 114.245C131.349 113.919 131.725 113.662 132.143 113.491C132.561 113.321 133.011 113.241 133.462 113.256C135.57 113.256 136.815 114.486 136.815 115.998C136.773 116.914 136.406 117.785 135.78 118.456C135.176 119.144 134.547 119.771 133.154 121.111H136.852L136.926 123.029Z" fill="white"/>
<path d="M142.633 123.053H140.402V115.272H138.947V113.392H142.645L142.633 123.053Z" fill="white"/>
<path d="M148.106 123.41H145.739V121.308H148.106V123.41Z" fill="white"/>
<path d="M157.129 123.053H154.91V115.272H153.431V113.392H157.129V123.053Z" fill="white"/>
<path d="M164.759 123.053H162.528V115.272H161.074V113.392H164.771L164.759 123.053Z" fill="white"/>
<path d="M170.232 123.41H167.878V121.308H170.232V123.41Z" fill="white"/>
<path d="M179.206 123.053H176.975V115.272H175.52V113.392H179.218L179.206 123.053Z" fill="white"/>
<path d="M188.623 113.392V115.027L185.566 123.053H183.212L186.207 115.272H182.411V113.392H188.623Z" fill="white"/>
<path d="M192.371 123.41H190.004V121.308H192.371V123.41Z" fill="white"/>
<path d="M202.823 119.157H197.203V117.264H202.823V119.157Z" fill="white"/>
<path d="M212.241 123.053H210.022V115.272H208.568V113.392H212.266L212.241 123.053Z" fill="white"/>
<path d="M221.917 123.029H215.261V121.234C216.383 120.14 217.726 118.776 219.033 117.424C219.386 117.055 219.603 116.579 219.649 116.071C219.649 115.555 219.304 115.162 218.601 115.162C217.899 115.162 217.369 115.653 217.369 116.711H215.162C215.124 116.262 215.181 115.81 215.33 115.385C215.48 114.96 215.718 114.572 216.029 114.245C216.34 113.919 216.717 113.662 217.135 113.491C217.553 113.321 218.002 113.241 218.453 113.256C220.561 113.256 221.806 114.486 221.806 115.998C221.764 116.914 221.397 117.785 220.771 118.456C220.167 119.144 219.538 119.771 218.145 121.111H221.843L221.917 123.029Z" fill="white"/>
<path d="M225.406 123.41H223.051V121.308H225.406V123.41Z" fill="white"/>
<path d="M236.364 123.029H229.707V121.234C230.829 120.14 232.173 118.776 233.479 117.424C233.832 117.055 234.05 116.579 234.096 116.071C234.096 115.555 233.751 115.162 233.048 115.162C232.345 115.162 231.815 115.653 231.815 116.711H229.609C229.572 116.261 229.631 115.809 229.782 115.384C229.933 114.959 230.172 114.571 230.484 114.245C230.796 113.919 231.174 113.662 231.592 113.492C232.011 113.321 232.461 113.241 232.912 113.256C235.02 113.256 236.265 114.486 236.265 115.998C236.223 116.914 235.856 117.785 235.23 118.456C234.613 119.144 233.997 119.771 232.604 121.111H236.302L236.364 123.029Z" fill="white"/>
<path d="M240.949 123.176C238.25 123.176 237.424 121.222 237.424 118.751C237.424 115.912 238.225 113.269 241.122 113.269C241.523 113.229 241.927 113.274 242.31 113.4C242.692 113.526 243.044 113.73 243.343 114C243.641 114.27 243.88 114.599 244.043 114.966C244.206 115.334 244.29 115.731 244.29 116.133H242.071C241.997 115.408 241.603 115.174 241.085 115.174C240.062 115.174 239.729 116.022 239.643 116.981C240.106 116.713 240.636 116.581 241.171 116.6C241.604 116.567 242.039 116.628 242.447 116.778C242.854 116.928 243.225 117.164 243.532 117.469C243.84 117.775 244.078 118.143 244.23 118.549C244.382 118.955 244.444 119.389 244.413 119.821C244.428 120.274 244.347 120.725 244.177 121.145C244.007 121.565 243.75 121.946 243.424 122.261C243.098 122.577 242.71 122.822 242.284 122.979C241.857 123.137 241.403 123.204 240.949 123.176ZM240.949 118.616C240.77 118.599 240.589 118.622 240.419 118.682C240.249 118.743 240.094 118.84 239.966 118.967C239.838 119.093 239.739 119.246 239.677 119.415C239.615 119.584 239.59 119.764 239.606 119.944C239.594 120.112 239.617 120.281 239.674 120.44C239.73 120.6 239.819 120.745 239.935 120.869C240.05 120.992 240.19 121.091 240.346 121.158C240.501 121.225 240.669 121.259 240.838 121.259C241.01 121.259 241.18 121.224 241.337 121.156C241.494 121.087 241.636 120.987 241.752 120.861C241.868 120.734 241.956 120.586 242.011 120.423C242.066 120.261 242.086 120.089 242.071 119.919C242.094 119.758 242.082 119.594 242.036 119.438C241.99 119.282 241.912 119.138 241.806 119.014C241.699 118.891 241.568 118.792 241.421 118.723C241.273 118.654 241.112 118.618 240.949 118.616Z" fill="white"/>
<path d="M247.852 123.41H245.485V121.308H247.852V123.41Z" fill="white"/>
<path d="M104.618 112.826V124" stroke="white" stroke-miterlimit="10"/>
</g>
</g>
<defs>
<filter id="filter0_d_10:1215" x="0" y="0" width="258" height="134" filterUnits="userSpaceOnUse" color-interpolation-filters="sRGB">
<feFlood flood-opacity="0" result="BackgroundImageFix"/>
<feColorMatrix in="SourceAlpha" type="matrix" values="0 0 0 0 0 0 0 0 0 0 0 0 0 0 0 0 0 0 127 0" result="hardAlpha"/>
<feOffset/>
<feGaussianBlur stdDeviation="5"/>
<feComposite in2="hardAlpha" operator="out"/>
<feColorMatrix type="matrix" values="0 0 0 0 0 0 0 0 0 0 0 0 0 0 0 0 0 0 0.25 0"/>
<feBlend mode="normal" in2="BackgroundImageFix" result="effect1_dropShadow_10:1215"/>
<feBlend mode="normal" in="SourceGraphic" in2="effect1_dropShadow_10:1215" result="shape"/>
</filter>
<clipPath id="clip0_10:1215">
<rect width="238" height="114" fill="white" transform="translate(10 10)"/>
</clipPath>
</defs>
</svg>
